<?xml version="1.0"?>
<svg xmlns="http://www.w3.org/2000/svg" xmlns:xlink="http://www.w3.org/1999/xlink" xmlns:svgjs="http://svgjs.com/svgjs" version="1.1" width="512" height="512" x="0" y="0" viewBox="0 0 512 512" style="enable-background:new 0 0 512 512" xml:space="preserve" class=""><g><g xmlns="http://www.w3.org/2000/svg"><path d="m170 18.716c0-2.342 1.477-4.445 3.695-5.198 25.83-8.765 53.512-13.518 82.305-13.518 62.398 0 119.582 22.324 164 59.421v381.465c0 7.545-3.486 14.695-9.499 19.252-42.939 32.55-96.465 51.862-154.501 51.862-28.79 0-56.469-4.753-82.297-13.516-2.223-.754-3.703-2.862-3.703-5.209z" fill="#7b5341" data-original="#7b5341" style=""/><path d="m256 0c62.398 0 119.582 22.324 164 59.421v283.031c0 47.582-38.374 86.289-85.955 86.636-.738.005-1.477.01-2.215.013-47.924.221-86.83-38.713-86.83-86.636v-342.232c3.647-.155 7.315-.233 11-.233z" fill="#865b47" data-original="#865b47" style=""/><path d="m512 256c0 6.071-.211 12.092-.627 18.057-.156 2.244-9.053 4.481-9.267 6.709-3.24 33.756-12.001 64.319-27.064 92.958-.882 1.678 5.893 4.621 4.975 6.277-17.479 31.51-41.414 58.945-70.018 80.518v-409.037c61.953 46.724 102.001 120.944 102.001 204.518zm-512 0c0 112.706 72.833 208.4 174 242.585v-485.17c-101.167 34.185-174 129.879-174 242.585z" fill="#3fc1c9" data-original="#60c8dd" style="" class=""/><path d="m148.986 258.707c-.35 8.087-7.29 14.333-15.385 14.333h-89.688c-8.077 0-15.027-6.207-15.406-14.275-.405-8.614 6.458-15.725 14.983-15.725h5.626c8.068 0 14.609-6.54 14.609-14.609 0-8.284 6.716-15 15-15h54.878c8.095 0 15.034 6.246 15.385 14.333.336 7.753-5.216 14.277-12.558 15.471 7.339 1.195 12.892 7.718 12.556 15.472zm-101.412-73.754h20.793c8.284 0 15-6.716 15-15 0-8.284-6.716-15-15-15h-20.793c-8.284 0-15 6.716-15 15 0 8.285 6.716 15 15 15zm40.681-73.008h43.602c8.284 0 15-6.716 15-15 0-8.284-6.716-15-15-15h-43.602c-8.284 0-15 6.716-15 15 0 8.284 6.716 15 15 15z" fill="#364f6b" data-original="#a6e0ec" style="" class=""/><path d="m228.908 67.352c0 17.169-22.604 36.959-34.454 39.648-11.85-2.689-34.454-22.48-34.454-39.648 0-20.224 26.572-22.456 34.454-8.003 7.882-14.453 34.454-12.222 34.454 8.003z" fill="#fc7979" data-original="#fc7979" style="" class=""/><path d="m228.908 67.352c0 1.478-.167 2.975-.481 4.479-4.14 19.854-29.227 26.41-43.275 11.783-8.93-9.298-16.019-20.853-16.098-31.608 8.467-4.16 20.519-1.609 25.4 7.343 7.882-14.453 34.454-12.222 34.454 8.003z" fill="#fd9a9a" data-original="#fd9a9a" style="" class=""/><path d="m340 251.754c0 7.95-10.467 17.114-15.954 18.359-5.487-1.245-15.954-10.409-15.954-18.359 0-9.365 12.304-10.398 15.954-3.706 3.65-6.692 15.954-5.658 15.954 3.706z" fill="#fdbcbc" data-original="#fdbcbc" style=""/><path d="m290 297.754c0 7.95-10.467 17.114-15.954 18.359-5.487-1.245-15.954-10.409-15.954-18.359 0-9.365 12.304-10.398 15.954-3.706 3.65-6.692 15.954-5.658 15.954 3.706z" fill="#fd9a9a" data-original="#fd9a9a" style="" class=""/><path d="m436.04 365.531h-74.692c-6.905 0-12.502-5.598-12.502-12.502v-219.029h13.022c79.02 0 143.77 61.09 149.601 138.618-.764 11.929-2.346 23.636-4.689 35.065-6.896 33.639-36.401 57.848-70.74 57.848z" fill="#9b9b9b" data-original="#9b9b9b" style=""/><path d="m389.399 365.531h-28.051c-6.905 0-12.502-5.597-12.502-12.502v-219.029h13.022c5.072 0 10.086.252 15.029.744v218.285c0 6.905 5.597 12.502 12.502 12.502zm36.497-187.244c0 4.786 3.88 8.665 8.666 8.665h41.698c-5.298-6.236-11.096-12.034-17.333-17.331h-24.365c-4.786 0-8.666 3.88-8.666 8.666zm79.312 61.314h-70.647c-4.786 0-8.666 3.879-8.666 8.665s3.88 8.665 8.666 8.665h74.894c-1.077-5.905-2.5-11.689-4.247-17.33zm-70.646-34.99c-4.786 0-8.666 3.88-8.666 8.665 0 4.786 3.88 8.665 8.666 8.665h63.925c-2.73-5.999-5.844-11.786-9.31-17.331h-54.615z" fill="#838383" data-original="#838383" style="" class=""/><path d="m381.897 209v140c0 2.761-2.239 5-5 5s-5-2.239-5-5v-140c0-2.761 2.239-5 5-5s5 2.239 5 5z" fill="#5a5a5a" data-original="#5a5a5a" style="" class=""/><path d="m503.095 323.179c-1.618 5.965-3.446 11.843-5.476 17.626-5.154 14.685-19.096 24.458-34.659 24.458h-120.597c-5.523 0-10-4.477-10-10v-5.005c0-5.523 4.477-10 10-10h61.389v-11.708c0-29.837 23.788-54.7 53.624-54.969 11.748-.106 22.641 3.531 31.559 9.791 12.65 8.878 18.205 24.891 14.16 39.807z" fill="#bebebe" data-original="#bebebe" style="" class=""/><path d="m388.806 163.749c-23.643 9.568-50.56 8.07-73.177-4.495-26.992-14.995-43.733-43.446-43.733-74.324v-38.526c8.323-4.036 12.755-13.291 10.665-22.302-2.576-11.104-5.302-23.925-2.566-24.087.172-.01.345-.015.519-.015 3.027 0 5.832 1.588 7.389 4.184l25.831 43.052h1.676c2.92 0 5.287 2.367 5.287 5.287 0 45.351 24.587 87.136 64.231 109.16 1.283.713 2.577 1.401 3.878 2.066z" fill="#aaaaaa" data-original="#aaaaaa" style="" class=""/><path d="m441.944 46.021v38.909c0 30.878-16.74 59.328-43.732 74.324-6.459 3.588-13.269 6.274-20.253 8.057-6.984-1.783-13.794-4.469-20.253-8.057-26.992-14.995-43.955-43.446-43.955-74.324v-37.695h86.357l25.696-42.826c1.414-2.356 3.799-4.048 6.53-4.354.513-.057 1.018-.07 1.512-.041 3.072.182.157 17.963-2.024 30.771-1.186 6.958 3.25 13.63 10.122 15.236z" fill="#bebebe" data-original="#bebebe" style="" class=""/><path d="m295.225 42.918c2.775 7.817-3.023 16.027-11.318 16.027-6.633 0-12.01-5.377-12.01-12.01v-38.318c0-4.585 3.581-8.334 8.099-8.602zm138.619-42.903-15.229 42.902c-2.775 7.817 3.023 16.027 11.318 16.027 6.633 0 12.01-5.377 12.01-12.01v-38.317c.001-4.585-3.58-8.334-8.099-8.602z" fill="#fc7979" data-original="#fc7979" style="" class=""/><path d="m326.92 71.397v10c0 2.761-2.239 5-5 5s-5-2.239-5-5v-10c0-2.761 2.239-5 5-5 2.762 0 5 2.239 5 5zm65-5c-2.761 0-5 2.239-5 5v10c0 2.761 2.239 5 5 5s5-2.239 5-5v-10c0-2.761-2.238-5-5-5z" fill="#464646" data-original="#464646" style=""/><path d="m361.92 130.477v10c0 2.761-2.239 5-5 5s-5-2.239-5-5v-10c0-2.761 2.239-5 5-5 2.762 0 5 2.239 5 5z" fill="#fb5858" data-original="#fb5858" style=""/><path d="m393.144 124.133c0 8.284-6.716 15-15 15h-7.596c-6.044 0-11.252-3.574-13.628-8.724-2.375 5.15-7.584 8.724-13.628 8.724h-7.596c-8.284 0-15-6.716-15-15s6.716-15 15-15h7.596c6.043 0 11.252 3.574 13.628 8.724 2.375-5.15 7.584-8.724 13.628-8.724h7.596c8.284 0 15 6.715 15 15z" fill="#e7e7e7" data-original="#e7e7e7" style="" class=""/><path d="m372.92 114.397c0 4.418-3.582 8-8 8h-1.6v4.8c0 3.535-2.865 6.4-6.4 6.4s-6.4-2.865-6.4-6.4v-4.8h-1.6c-4.418 0-8-3.582-8-8s3.582-8 8-8h16c4.419 0 8 3.582 8 8z" fill="#fc7979" data-original="#fc7979" style="" class=""/><path d="m314.587 140.847c.873 2.62-.543 5.451-3.163 6.324l-41.251 13.758c-.524.175-1.058.258-1.582.258-2.094 0-4.044-1.325-4.743-3.42-.873-2.62.543-5.451 3.163-6.324l41.251-13.758c2.621-.873 5.451.543 6.325 3.162zm14.322-26.714h-82.013c-2.761 0-5 2.239-5 5s2.239 5 5 5h82.013c2.761 0 5-2.239 5-5s-2.238-5-5-5zm117.92 37.309-41.25-13.758c-2.621-.873-5.451.543-6.325 3.163-.873 2.62.543 5.451 3.163 6.324l41.25 13.758c.524.175 1.058.258 1.582.258 2.094 0 4.044-1.325 4.743-3.42.873-2.62-.543-5.452-3.163-6.325zm20.115-37.309h-82.013c-2.761 0-5 2.239-5 5s2.239 5 5 5h82.013c2.761 0 5-2.239 5-5s-2.239-5-5-5z" fill="#838383" data-original="#838383" style="" class=""/><path d="m330.617 352.979v-3.721c0-4.971 4.029-9 9-9h64.251c4.971 0 9 4.029 9 9v3.721c0 4.971-4.029 9-9 9h-64.251c-4.971 0-9-4.03-9-9zm172.253-28.979c1.675-6.096 3.132-12.283 4.358-18.552-8.552-18.935-27.68-32.069-49.853-31.868-5.277.048-10.365.865-15.166 2.343 1.206 12.165 6.52 24 15.942 33.254 12.244 12.024 28.826 16.88 44.719 14.823zm-76.935-57.112c-.04-6.962-5.262-12.99-12.213-13.4-7.537-.445-13.788 5.536-13.788 12.977 0 49.198 36.05 90.136 83.122 97.784 2.785.452 5.513-1.07 6.667-3.645 3.08-6.871 5.866-13.903 8.342-21.079-39.72-.501-71.903-32.854-72.13-72.637z" fill="#cecece" data-original="#cecece" style=""/><path d="m223.154 230v219.029c0 6.905-5.598 12.502-12.502 12.502h-138.047c-6.905 0-12.502-5.597-12.502-12.502v-69c0-82.859 67.17-150.029 150.029-150.029z" fill="#ffc14f" data-original="#ffc14f" style="" class=""/><path d="m223.154 230v.628c-76.381 6.975-136.211 71.2-136.211 149.4v69c0 6.905 5.598 12.502 12.502 12.502h-26.84c-6.905 0-12.502-5.597-12.502-12.502v-69c0-82.858 67.17-150.028 150.029-150.028z" fill="#ffb52d" data-original="#ffb52d" style="" class=""/><path d="m168.248 423.702v28.54c0 4.982-4.039 9.021-9.021 9.021h-98.851c-.208 0-.376-.168-.376-.376v-37.185c0-29.892 24.232-54.124 54.124-54.124 29.892 0 54.124 24.232 54.124 54.124z" fill="#ffcd71" data-original="#ffcd71" style=""/><path d="m200.103 305v140c0 2.761-2.239 5-5 5s-5-2.239-5-5v-140c0-2.761 2.239-5 5-5s5 2.239 5 5z" fill="#ff7c48" data-original="#ff7c48" style=""/><path d="m156.796 390.404c7.938 10.158.737 24.995-12.155 24.959-11.1-.031-24.366-.073-35.372-.123-12.318-.056-22.268-10.059-22.265-22.377v-.562c.002-11.059 8.08-20.478 19.016-22.12 2.644-.397 5.35-.603 8.105-.603 17.333 0 32.765 8.15 42.671 20.826zm72.841 45.854h-63.349c-5.523 0-10 4.477-10 10v5.005c0 5.523 4.477 10 10 10h63.349c5.523 0 10-4.477 10-10v-5.005c0-5.523-4.477-10-10-10z" fill="#ffd993" data-original="#ffd993" style="" class=""/><path d="m280.103 143.235v37.695c0 30.878-16.74 59.328-43.732 74.324-25.679 14.266-56.903 14.266-82.582 0-26.992-14.995-43.732-43.446-43.732-74.324v-38.781c9.378-2.907 14.708-12.774 12.008-22.214-3.216-11.246-6.559-23.763-3.909-23.92.494-.029.999-.017 1.512.041 2.731.306 5.116 1.997 6.53 4.354l25.696 42.826h128.209z" fill="#ffcd71" data-original="#ffcd71" style=""/><path d="m280.103 142.149v38.781c0 30.878-16.74 59.328-43.732 74.324-6.459 3.588-13.269 6.274-20.253 8.057-6.984-1.783-13.794-4.469-20.253-8.057-26.992-14.995-43.96-43.446-43.96-74.324v-37.695h86.362l25.831-43.052c1.557-2.595 4.362-4.184 7.389-4.184.174 0 .346.005.517.015 2.987.177-.59 17.981-3.358 31.353-1.532 7.402 3.908 14.417 11.457 14.782z" fill="#ffd993" data-original="#ffd993" style="" class=""/><path d="m133.384 138.918c2.775 7.817-3.023 16.027-11.318 16.027-6.633 0-12.01-5.377-12.01-12.01v-38.318c0-4.585 3.581-8.334 8.099-8.602zm138.62-42.903-15.228 42.902c-2.775 7.817 3.023 16.027 11.318 16.027 6.633 0 12.01-5.377 12.01-12.01v-38.318c-.001-4.584-3.582-8.333-8.1-8.601z" fill="#ff7c48" data-original="#ff7c48" style=""/><path d="m170.08 172.397c0 2.761-2.239 5-5 5h-10c-2.761 0-5-2.239-5-5s2.239-5 5-5h10c2.761 0 5 2.239 5 5zm65-5h-10c-2.761 0-5 2.239-5 5s2.239 5 5 5h10c2.761 0 5-2.239 5-5s-2.239-5-5-5z" fill="#824e2b" data-original="#824e2b" style="" class=""/><path d="m200.08 226.477v10c0 2.761-2.239 5-5 5s-5-2.239-5-5v-10c0-2.761 2.239-5 5-5s5 2.239 5 5z" fill="#fd9a9a" data-original="#fd9a9a" style="" class=""/><path d="m231.303 220.133c0 8.284-6.716 15-15 15h-7.596c-6.043 0-11.252-3.574-13.628-8.724-2.375 5.15-7.584 8.724-13.628 8.724h-7.596c-8.284 0-15-6.716-15-15s6.716-15 15-15h7.596c6.044 0 11.252 3.574 13.628 8.724 2.376-5.15 7.584-8.724 13.628-8.724h7.596c8.284 0 15 6.715 15 15z" fill="#f9f1d2" data-original="#f9f1d2" style="" class=""/><path d="m211.08 210.397c0 4.418-3.582 8-8 8h-1.6v4.8c0 3.535-2.865 6.4-6.4 6.4s-6.4-2.865-6.4-6.4v-4.8h-1.6c-4.418 0-8-3.582-8-8s3.582-8 8-8h16c4.418 0 8 3.582 8 8z" fill="#fc7979" data-original="#fc7979" style="" class=""/><path d="m172.069 215.133c0 2.761-2.239 5-5 5h-82.013c-2.761 0-5-2.239-5-5s2.239-5 5-5h82.013c2.761 0 5 2.239 5 5zm-25.648 18.552-41.25 13.758c-2.62.873-4.036 3.705-3.163 6.324.699 2.095 2.649 3.42 4.743 3.42.524 0 1.057-.083 1.582-.258l41.25-13.758c2.62-.873 4.036-3.705 3.163-6.324-.874-2.619-3.704-4.035-6.325-3.162zm158.682-23.552h-82.013c-2.761 0-5 2.239-5 5s2.239 5 5 5h82.013c2.761 0 5-2.239 5-5s-2.239-5-5-5zm-20.114 37.309-41.251-13.758c-2.621-.873-5.451.543-6.325 3.163-.873 2.62.543 5.451 3.163 6.324l41.251 13.758c.524.175 1.058.258 1.582.258 2.094 0 4.044-1.325 4.743-3.42.872-2.62-.544-5.452-3.163-6.325z" fill="#ff7c48" data-original="#ff7c48" style=""/><path d="m172.066 373.465c0 54.625-44.441 99.066-99.066 99.066-7.18 0-13-5.82-13-13s5.82-13 13-13c40.289 0 73.066-32.777 73.066-73.066 0-7.18 5.82-13 13-13s13 5.82 13 13z" fill="#ff7c48" data-original="#ff7c48" style=""/><path d="m340 470c0 5.523-4.477 10-10 10h-290c-5.523 0-10-4.477-10-10s4.477-10 10-10h239.431c.135-.159.277-.314.427-.464l17.678-17.678c2.929-2.929 7.678-2.929 10.607 0s2.929 7.678 0 10.606l-7.536 7.536h29.393c5.523 0 10 4.477 10 10zm-21.431-110c-.135-.159-.277-.314-.427-.464l-17.678-17.678c-2.929-2.929-7.678-2.929-10.607 0s-2.929 7.678 0 10.606l7.536 7.536h-37.393c-5.523 0-10 4.477-10 10s4.477 10 10 10h220.018c3.605-6.499 6.935-13.17 9.975-20z" fill="#c9885b" data-original="#c9885b" style="" class=""/></g></g></svg>
